<svg width="500" height="500" fill="none" xmlns="http://www.w3.org/2000/svg">
  <defs>
    <clipPath id="c">
      <path transform="rotate(6.303 187.53 -462.582)" fill="#fff" fill-opacity="0" d="M0 0h594v500H0z"/>
    </clipPath>
    <clipPath id="b">
      <path transform="matrix(-1 0 0 1 530.699 -1)" fill="#fff" fill-opacity="0" d="M0 0h515.399v387H0z"/>
    </clipPath>
    <clipPath id="a">
      <path fill="#fff" fill-opacity="0" d="M0 0h500v500H0z"/>
    </clipPath>
  </defs>
  <g clip-path="url(#a)">
    <path d="M149.54 296.34a9.606 9.606 0 0 1-3.92-7.73c0-3.04 1.46-5.93 3.91-7.72l11.33-8.3a5.164 5.164 0 0 0 1.84-5.79c-2.91-8.76-7.52-16.75-13.7-23.75a5.167 5.167 0 0 0-5.94-1.31l-12.75 5.61a9.6 9.6 0 0 1-13.39-7.73l-1.53-13.99a5.164 5.164 0 0 0-4.09-4.5c-8.93-1.82-18.31-1.85-27.4-.03-2.2.44-3.86 2.26-4.11 4.5l-1.52 13.9a9.578 9.578 0 0 1-13.38 7.73l-12.82-5.64c-2.04-.9-4.44-.37-5.93 1.3-6.2 6.97-10.83 14.95-13.78 23.71-.71 2.12.03 4.47 1.84 5.8l11.25 8.25a9.606 9.606 0 0 1 3.92 7.73c0 3.04-1.46 5.93-3.91 7.72l-11.32 8.3a5.159 5.159 0 0 0-1.85 5.79c2.91 8.76 7.52 16.75 13.7 23.75 1.49 1.68 3.9 2.22 5.94 1.31l12.75-5.61a9.602 9.602 0 0 1 8.65.48 9.606 9.606 0 0 1 4.74 7.25l1.53 13.99c.24 2.23 1.9 4.05 4.09 4.5 4.52.92 9.16 1.39 13.81 1.39 4.53 0 9.1-.46 13.58-1.36a5.172 5.172 0 0 0 4.12-4.5l1.52-13.91c.33-3.02 2.1-5.73 4.74-7.25a9.61 9.61 0 0 1 8.64-.47l12.82 5.63c2.04.91 4.44.38 5.93-1.29 6.2-6.98 10.83-14.96 13.78-23.71.71-2.12-.03-4.47-1.84-5.8l-11.25-8.25ZM97.5 312.56c-13.29 0-24.07-10.78-24.07-24.06 0-13.29 10.78-24.07 24.07-24.07 13.29 0 24.06 10.78 24.06 24.07 0 13.28-10.77 24.06-24.06 24.06Z" fill="#A0B18B"/>
    <path d="M232.31 389.52a9.62 9.62 0 0 1-4.12-7.62 9.59 9.59 0 0 1 3.7-7.83l11.09-8.6a5.173 5.173 0 0 0 1.69-5.84c-3.15-8.68-7.97-16.54-14.34-23.37a5.166 5.166 0 0 0-5.97-1.15l-12.59 5.95a9.61 9.61 0 0 1-8.66-.24 9.644 9.644 0 0 1-4.93-7.12l-1.91-13.95a5.158 5.158 0 0 0-4.21-4.38c-8.97-1.59-18.35-1.37-27.39.7-2.19.5-3.8 2.36-3.98 4.6l-1.15 13.95A9.597 9.597 0 0 1 155 342a9.573 9.573 0 0 1-8.63.7l-12.97-5.29a5.154 5.154 0 0 0-5.89 1.46c-6.01 7.14-10.43 15.24-13.13 24.06-.66 2.15.14 4.47 1.99 5.76l11.47 7.94a9.59 9.59 0 0 1 .42 15.45l-11.09 8.6a5.157 5.157 0 0 0-1.69 5.84c3.15 8.68 7.97 16.54 14.34 23.37a5.153 5.153 0 0 0 5.97 1.15l12.59-5.95a9.61 9.61 0 0 1 8.66.24 9.644 9.644 0 0 1 4.93 7.12l1.91 13.95c.3 2.22 2.01 3.99 4.21 4.38 4.54.8 9.19 1.14 13.83 1.02 4.53-.12 9.09-.7 13.55-1.72 2.2-.51 3.81-2.36 3.99-4.61l1.15-13.94a9.58 9.58 0 0 1 4.54-7.38 9.637 9.637 0 0 1 8.63-.71l12.97 5.29c2.06.85 4.45.27 5.89-1.45 6.01-7.14 10.42-15.24 13.13-24.07.66-2.14-.14-4.47-1.99-5.75l-11.47-7.94Zm-51.59 17.61c-13.28.36-24.34-10.12-24.7-23.41-.36-13.28 10.12-24.34 23.41-24.7 13.28-.36 24.34 10.12 24.7 23.41.36 13.28-10.12 24.34-23.41 24.7Z" fill="#BFCCB4"/>
    <path d="M299.83 391.48a4.59 4.59 0 0 1-2.7-3.16c-.35-1.41.01-2.92.94-4.03l4.33-5.15c.69-.82.77-1.99.2-2.9-2.35-3.74-5.4-6.94-9.07-9.49-.88-.61-2.06-.59-2.91.06l-5.3 4.06a4.595 4.595 0 0 1-4.07.76 4.615 4.615 0 0 1-3.03-2.84l-2.3-6.33a2.464 2.464 0 0 0-2.41-1.63 33.08 33.08 0 0 0-12.75 3.09c-.97.46-1.54 1.49-1.4 2.56l.87 6.64a4.6 4.6 0 0 1-5.35 5.12l-6.6-1.17a2.47 2.47 0 0 0-2.61 1.27c-2.1 3.95-3.34 8.19-3.72 12.59a2.47 2.47 0 0 0 1.51 2.49l6.17 2.56a4.59 4.59 0 0 1 2.7 3.16c.35 1.41-.01 2.92-.94 4.03l-4.33 5.15c-.69.82-.77 1.99-.2 2.9 2.35 3.74 5.4 6.94 9.07 9.49.88.62 2.06.59 2.91-.06l5.3-4.06a4.595 4.595 0 0 1 4.07-.76c1.4.41 2.53 1.47 3.03 2.84l2.3 6.33a2.464 2.464 0 0 0 2.41 1.63c2.21-.08 4.42-.39 6.58-.92 2.11-.51 4.18-1.25 6.17-2.17.97-.46 1.54-1.49 1.4-2.56l-.87-6.64c-.19-1.45.33-2.91 1.38-3.92 1.05-1 2.53-1.45 3.97-1.2l6.6 1.17a2.47 2.47 0 0 0 2.61-1.27c2.09-3.95 3.34-8.19 3.72-12.59a2.47 2.47 0 0 0-1.51-2.49l-6.17-2.56Zm-22.37 13.44c-6.18 1.51-12.42-2.28-13.92-8.46-1.51-6.18 2.28-12.42 8.46-13.92 6.18-1.51 12.41 2.28 13.92 8.46 1.51 6.18-2.28 12.42-8.46 13.92Z" fill="#D6E0C6"/>
    <path d="M87.83 200.48a4.59 4.59 0 0 1-2.7-3.16c-.35-1.41.01-2.92.94-4.03l4.33-5.15c.69-.82.77-1.99.2-2.9-2.35-3.74-5.4-6.94-9.07-9.49-.88-.61-2.06-.59-2.91.06l-5.3 4.06a4.595 4.595 0 0 1-4.07.76 4.615 4.615 0 0 1-3.03-2.84l-2.3-6.33a2.464 2.464 0 0 0-2.41-1.63 33.08 33.08 0 0 0-12.75 3.09c-.97.46-1.54 1.49-1.4 2.56l.87 6.64a4.6 4.6 0 0 1-5.35 5.12l-6.6-1.17a2.47 2.47 0 0 0-2.61 1.27c-2.1 3.95-3.34 8.19-3.72 12.59a2.47 2.47 0 0 0 1.51 2.49l6.17 2.56a4.59 4.59 0 0 1 2.7 3.16c.35 1.41-.01 2.92-.94 4.03l-4.33 5.15c-.69.82-.77 1.99-.2 2.9 2.35 3.74 5.4 6.94 9.07 9.49.88.62 2.06.59 2.91-.06l5.3-4.06a4.595 4.595 0 0 1 4.07-.76c1.4.41 2.53 1.47 3.03 2.84l2.3 6.33a2.464 2.464 0 0 0 2.41 1.63c2.21-.08 4.42-.39 6.58-.92 2.11-.51 4.18-1.25 6.17-2.17.97-.46 1.54-1.49 1.4-2.56l-.87-6.64c-.19-1.45.32-2.91 1.38-3.92 1.05-1 2.53-1.45 3.97-1.2l6.6 1.17a2.47 2.47 0 0 0 2.61-1.27c2.09-3.95 3.34-8.19 3.72-12.59a2.47 2.47 0 0 0-1.51-2.49l-6.17-2.56Zm-22.37 13.44c-6.18 1.51-12.42-2.28-13.92-8.46-1.51-6.18 2.28-12.42 8.46-13.92 6.18-1.51 12.41 2.28 13.92 8.46 1.51 6.18-2.28 12.42-8.46 13.92Z" fill="#859968"/>
    <path d="M92.13 159.32a1.91 1.91 0 0 1-1.32-1.12c-.24-.56-.2-1.2.11-1.72l1.44-2.42c.23-.38.19-.87-.11-1.21a13.72 13.72 0 0 0-4.38-3.3c-.4-.19-.88-.1-1.19.22l-1.91 2.03c-.42.44-1.03.66-1.63.59-.61-.08-1.14-.44-1.44-.97l-1.37-2.46c-.22-.39-.67-.59-1.11-.51-1.78.36-3.51 1.09-5.05 2.13-.37.26-.53.72-.4 1.15l.8 2.68c.18.59.06 1.22-.3 1.71-.37.48-.95.77-1.56.76l-2.8-.04c-.44-.01-.85.28-.99.7-.6 1.77-.83 3.6-.69 5.44.04.45.36.82.79.93l2.72.64c.59.14 1.09.56 1.32 1.12.24.56.2 1.2-.12 1.73l-1.43 2.41c-.23.38-.19.87.11 1.21a13.72 13.72 0 0 0 4.38 3.3c.4.2.89.11 1.19-.22l1.91-2.03c.42-.44 1.03-.66 1.63-.58.61.07 1.14.43 1.44.96l1.37 2.46c.22.39.67.6 1.11.51.9-.19 1.79-.46 2.65-.82.83-.36 1.64-.8 2.39-1.31.38-.26.54-.72.41-1.15l-.8-2.68c-.18-.59-.06-1.22.3-1.71.37-.48.95-.77 1.56-.76l2.8.04c.45.01.85-.28.99-.7.6-1.77.83-3.6.69-5.44-.04-.45-.36-.82-.79-.93l-2.72-.64Zm-8.32 7.05a4.82 4.82 0 0 1-6.31-2.56 4.824 4.824 0 0 1 2.56-6.31 4.82 4.82 0 0 1 6.31 2.56 4.824 4.824 0 0 1-2.56 6.31Z" fill="#6F7E56"/>
    <g clip-path="url(#b)">
      <g clip-path="url(#c)" fill="#5F795B">
        <path d="M213.7 241.64c10.64.25 21.83 1.66 32.78.59 38.76-3.81 69.86-20.53 88.96-55.89 2.48-4.62 4.42-9.55 6.4-14.44 1.21-2.98 3.05-4.74 6.2-5.73 30.37-9.63 57.72-24.86 82.46-44.82 18.78-15.16 35.58-32.21 49.22-52.22.77-1.12 1.48-2.3 1.98-3.63-26.31 24.14-58.22 37.86-91.2 49.47-24.16 8.51-48.54 16.4-72.72 24.85-12.83 4.5-25.06 10.41-35.83 18.83-4.56 3.58-9.35 7.39-12.56 12.09-11.91 17.47-28.93 26.94-48.48 32.93-3.99 1.22-7.97 2.46-11.9 3.88-6.05 2.19-10.84 6.25-15.3 10.73-6.47 6.51-13.1 12.78-23.03 15.06 3.94 6.89 7.56 13.54 11.51 20 10.18 16.59 22.57 31.16 39.03 41.97 13.53 8.9 28.34 14.42 44.23 17.17 16.66 2.87 33.43 4.12 50.33 2.78.83-.06 1.64-.25 2.92-.47-13.83-6.6-24.93-16.09-35.7-25.99-20.18-18.59-42.38-34.24-67.17-46.12-.79-.38-1.55-.82-2.31-1.26-.16-.09-.25-.31.18.22Z"/>
        <path d="M93.91 182.7c6.34-.1 11.81-.26 17.26-.29 13.79-.09 24.98 5.86 34.74 15.12 9.14 8.66 16.05 18.97 21.91 30.01 1.16 2.21 2.47 2.75 4.7 2.3 5.88-1.18 10.41-4.61 14.51-8.68 7-6.91 14-13.78 23.67-16.94 1.75-.57 3.53-1.05 5.58-1.67-8.2-12.66-18.77-21.62-33.45-24.88-6.61-1.46-12.96.14-18.82 3.26-3.82 2.03-7.6 2.31-11.79 1.69-10.46-1.53-20.92-3.13-31.44-4.07-8.91-.81-17.62.95-26.87 4.15Zm73.06 15.37c-4.97.55-4.97.55-5.08-.44-.55-4.97-.55-4.97.44-5.08 4.97-.55 4.97-.55 5.08.44.55 4.97.55 4.97-.44 5.08Z"/>
        <path d="M183.58 52.31c2.5-9.55 7.87-20.38 9.25-21.02 1.49-.16 1.55.34 2.14 1.28.6.77-.64 6.18-2.44 14.07-1.54 6.77-3.51 15.36-5.08 24.41-.35 13.14 1.67 26.25 5.88 39.3 6.39 19.86 17.56 37.12 29.77 53.76 5.02 6.84 10.16 13.55 15.79 21.05-5 2.43-9.54 4.63-14.2 7.05l-.68.07c-.5.07-.94.13-1.37.13 0 0-9.91 1.11-14.33-4.51-9.11-8.57-19.52-14.54-32.26-15.92-.64-.06-1.5-1.18-1.7-1.95-3.96-15.73-5.99-31.71-5.61-47.94.48-20.14 3.54-39.91 10.58-58.88 1.35-3.66 2.79-7.28 4.26-10.9ZM475.07 104.38c-10.6 7.83-17.73 14.43-28.71 21.68-21.71 14.32-45.49 24.44-69.91 33.26-8.63 3.11-16.88 7.39-25.04 11.65-2.94 1.54-5.1 4.57-8.01 7.29 10.73 4.59 20.97 4.57 31.28 3.02 15.6-2.34 29.76-8.65 43.06-16.75 24.81-15.11 43.85-34.95 58.85-59.71.47-.74.47-.74-.53-.7l-.99.26Zm-47.39 63.4c-14.7 9.94-18.75 11.07-34.61 16.59-13.22 4.6-26.88 7.14-40.73 9.01-7.08.96-14.11 2.41-20.24 6.45-1.33.88-2.5 2.03-4 3.27 5.75 4.39 11.97 6.6 18.65 7.66 16.17 2.56 31.23-1.38 45.61-8.3 18.6-8.99 28.39-21.58 40.17-38.55-3.26.61-3.43 1.94-4.85 3.87Zm-116.58 51.3c19.14 18.17 50.22 17.38 75.91-6.92-1.48.56-2.59.84-3.46 1.09-18.04 5.25-30.26 6.33-48.02 3.18-6.9-.88-9.41-.22-15.39-.52-4.05-.28-5.64 1.91-9.04 3.17ZM385.59 362.64c-4.29-6.67-8.42-13.49-12.96-20-26.69-38.24-58.37-72.16-95.99-100.98-2.11-1.62-3.91-2.26-6.69-1.29-9.31 3.23-18.98 4.42-29.34 4.54 5.55 4.94 10.73 10.3 16.67 14.74 17.77 13.22 35.91 25.99 53.78 39.1 26.32 19.31 51.41 39.93 73.15 63.99.37.31.91.27.91.27l.19-.02s.27-.04.29-.2c.03-.16-.01-.15-.01-.15Z"/>
        <path d="M365.88 239.76c-11.66-.29-33.41-2.49-33.84-3.28-1.03-.78-5.41-1.16-9.15-4.07-1.48-1.15-3.83-1.89-5.78-2.58-2.06-.74-4.08-1.49-5.58-1.63-2.77-.27-6.45-.91-10.13.92 8.52 14.94 41.27 21.43 64.48 10.64ZM334.42 254.79c-11.08-4.58-24.5-10.92-33.74-17.93-3.4-2.58-7.25-3.92-11.67-3.4 2.25 10.4 31.86 24.44 45.41 21.33Z"/>
      </g>
    </g>
  </g>
</svg>
